<svg xmlns="http://www.w3.org/2000/svg" viewBox="3840 807 36 45">
  <defs>
    <style>
      .cls-1, .cls-2 {
        fill: #c1b8b8;
      }

      .cls-1 {
        font-size: 12px;
        font-family: SegoeUI, Segoe UI;
      }
    </style>
  </defs>
  <g id="Group_1315" data-name="Group 1315" transform="translate(2004 139)">
    <text id="Power_Switch" data-name="Power
Switch" class="cls-1" transform="translate(1854 698)"><tspan x="-16.213" y="0">Power</tspan><tspan x="-17.089" y="12">Switch</tspan></text>
    <path id="power" class="cls-2" d="M17,5,15,7a5.888,5.888,0,0,1,3,5A6,6,0,0,1,6,12,5.923,5.923,0,0,1,9,7L7,5C4.92,6.44,4,9.28,4,12a8,8,0,0,0,16,0c0-2.72-.92-5.56-3-7M13,3H11V13h2" transform="translate(1842 665)"/>
  </g>
</svg>
